#!OML:ASF E:\id_vita\Project 1\Capture day 1\Session 1\Male1.ASF
:FULLY-SPECIFIED
:DEGREES
424
root 27.9147 16.0452 -0.527096 127.906 83.9526 124.924
lowerback -3.84302 -4.25944 -9.63912
upperback 3.31955 -5.01088 -0.302224
thorax 6.48638 -2.86635 4.55682
lowerneck -9.86379 -0.901449 7.98298
upperneck 33.848 -1.71704 -0.973685
head 12.8511 0.542304 -1.91633
rclavicle 2.45996e-015 1.58034e-014
rhumerus -34.6716 -19.9764 -80.5589
rradius 16.8485
rwrist 15.4686
rhand -20.1429 32.0123
rfingers 7.12502
rthumb 6.20185 2.12305
lclavicle 2.45996e-015 1.58034e-014
lhumerus -4.00446 0.417719 86.2282
lradius 39.3353
lwrist 7.87796
lhand -15.1337 44.2399
lfingers 7.12502
lthumb 11.0358 73.9298
rfemur -28.7261 1.64826 15.4235
rtibia 23.86
rfoot -6.22157 -5.39706
rtoes 6.26075
lfemur 11.4921 -2.92669 -26.9503
ltibia 17.1425
lfoot -20.4952 -5.42846
ltoes -10.6886
425
root 28.072 16.0555 -0.514051 133.773 84.4788 131.05
lowerback -3.68279 -4.20145 -8.82139
upperback 3.40729 -5.01836 -0.0567558
thorax 6.42882 -2.84524 4.3721
lowerneck -9.95746 -0.987685 7.83202
upperneck 34.2155 -1.78164 -1.01979
head 13.0235 0.511743 -1.92016
rclavicle 3.80424e-014 -1.7344e-014
rhumerus -34.7062 -19.9745 -80.6079
rradius 17.1209
rwrist 15.1206
rhand -20.1852 31.9899
rfingers 7.12502
rthumb 6.16104 2.09949
lclavicle 3.80424e-014 -1.7344e-014
lhumerus -4.38862 0.731265 86.5598
lradius 38.7752
lwrist 7.58094
lhand -15.205 44.3092
lfingers 7.12502
lthumb 10.967 74.0027
rfemur -28.0859 1.96642 16.2567
rtibia 24.2323
rfoot -5.19552 -5.23627
rtoes 9.77006
lfemur 11.7291 -2.93034 -25.9785
ltibia 18.2797
lfoot -20.2053 -5.84893
ltoes -10.8222
426
root 28.2276 16.0632 -0.49821 139.517 84.7379 137.005
lowerback -3.45062 -4.17416 -8.25144
upperback 3.38102 -5.05558 0.12961
thorax 6.23201 -2.83923 4.26763
lowerneck -9.87085 -1.07334 7.62316
upperneck 34.5661 -1.8753 -0.849412
head 13.156 0.490917 -1.83005
rclavicle -9.69075e-015 -6.90777e-015
rhumerus -34.9187 -19.0952 -81.0148
rradius 17.617
rwrist 13.9216
rhand -20.2973 31.831
rfingers 7.12502
rthumb 6.05276 1.93747
lclavicle -9.69075e-015 -6.90777e-015
lhumerus -4.8548 1.07167 86.8792
lradius 38.0027
lwrist 7.24064
lhand -15.1997 44.145
lfingers 7.12502
lthumb 10.9722 73.8383
rfemur -27.4906 2.03125 16.9358
rtibia 24.7144
rfoot -3.9342 -4.86346
rtoes 11.1606
lfemur 11.7964 -3.00859 -25.2242
ltibia 19.5665
lfoot -19.4393 -6.43558
ltoes -10.1683
427
root 28.3918 16.069 -0.477703 145.435 85.0036 143.09
lowerback -3.41376 -4.18499 -7.7729
upperback 3.40779 -5.11746 0.361494
thorax 6.22183 -2.85794 4.24135
lowerneck -9.63712 -1.09535 7.37841
upperneck 34.7404 -1.8777 -0.6194
head 13.1875 0.502778 -1.69472
rclavicle -5.31997e-014 1.68967e-015
rhumerus -34.9506 -18.5928 -81.2024
rradius 17.9063
rwrist 13.3594
rhand -20.2048 31.7874
rfingers 7.12502
rthumb 6.14213 1.89643
lclavicle -5.31997e-014 1.68967e-015
lhumerus -5.20096 1.57361 87.1745
lradius 37.0917
lwrist 6.93244
lhand -15.3351 44.0535
lfingers 7.12502
lthumb 10.8416 73.7537
rfemur -26.9107 2.16233 17.6509
rtibia 25.0923
rfoot -3.09695 -4.71659
rtoes 12.2319
lfemur 11.688 -2.83978 -24.3712
ltibia 21.1389
lfoot -18.7205 -7.16597
ltoes -8.84213
428
root 28.5501 16.0765 -0.482179 144.162 84.8131 141.607
lowerback -3.68581 -4.19662 -7.67723
upperback 3.3092 -5.11607 0.27337
thorax 6.25374 -2.84888 4.08091
lowerneck -9.71447 -1.22368 7.19354
upperneck 34.9746 -2.09131 -0.401809
head 13.3028 0.428783 -1.60676
rclavicle 1.3477e-014 6.85807e-015
rhumerus -34.9043 -18.5906 -81.2327
rradius 17.9198
rwrist 13.269
rhand -19.9693 31.3764
rfingers 7.12502
rthumb 6.36948 1.49212
lclavicle 1.3477e-014 6.85807e-015
lhumerus -5.67789 1.91793 87.3931
lradius 36.3312
lwrist 6.74667
lhand -15.171 44.4577
lfingers 7.12502
lthumb 10.9998 74.1495
rfemur -26.8572 1.30193 17.5885
rtibia 25.6145
rfoot -3.14533 -4.19995
rtoes 7.40307
lfemur 11.151 -2.63307 -24.52
ltibia 22.7426
lfoot -17.5097 -8.10552
ltoes -5.48917
429
root 28.7118 16.092 -0.459166 147.572 84.688 144.918
lowerback -3.82347 -4.17978 -7.49802
upperback 3.19539 -5.10102 0.290511
thorax 6.19234 -2.83018 3.99697
lowerneck -9.55114 -1.39717 7.15651
upperneck 35.1724 -2.33909 -0.274088
head 13.3462 0.349535 -1.58077
rclavicle -4.80189e-015 -6.5102e-015
rhumerus -35.0784 -18.9597 -81.1781
rradius 17.955
rwrist 13.3688
rhand -19.7964 30.9201
rfingers 7.12502
rthumb 6.53637 1.04092
lclavicle -4.80189e-015 -6.5102e-015
lhumerus -6.24466 1.95434 87.5564
lradius 35.5124
lwrist 6.56299
lhand -14.8084 44.6303
lfingers 7.12502
lthumb 11.3495 74.3032
rfemur -26.655 1.05776 17.9271
rtibia 26.1553
rfoot -3.18353 -4.6948
rtoes 1.40577
lfemur 10.5518 -2.41372 -23.9796
ltibia 24.447
lfoot -16.7785 -9.43268
ltoes -4.78926
430
root 28.8694 16.1037 -0.435207 148.603 84.4614 145.889
lowerback -3.95201 -4.15999 -7.5811
upperback 3.13005 -5.05961 0.257923
thorax 6.19594 -2.81062 4.00724
lowerneck -9.33494 -1.54438 6.99623
upperneck 35.2748 -2.55406 -0.0351598
head 13.3425 0.277259 -1.48346
rclavicle 1.21383e-014 -4.96962e-016
rhumerus -35.3145 -18.9895 -81.2637
rradius 18.3126
rwrist 13.1775
rhand -19.6601 31.0286
rfingers 7.12502
rthumb 6.66796 1.15354
lclavicle 1.21383e-014 -4.96962e-016
lhumerus -6.81803 2.08271 87.7457
lradius 34.7255
lwrist 6.34702
lhand -14.8987 44.458
lfingers 7.12502
lthumb 11.2625 74.1356
rfemur -26.4589 0.829319 18.0185
rtibia 26.706
rfoot -3.50157 -4.91913
rtoes 5.69407
lfemur 9.88742 -2.16131 -23.6782
ltibia 26.2427
lfoot -15.5008 -10.879
ltoes -2.88621
